# Blender v2.71 (sub 0) OBJ File: ''
# www.blender.org
v 0.500000 0.500000 -0.500000
v 0.500000 -0.500000 -0.500000
v -0.500000 -0.500000 -0.500000
v -0.500000 0.500000 -0.500000
v 0.500000 0.500000 0.500000
v 0.500000 -0.500000 0.500000
v -0.500000 -0.500000 0.500000
v -0.500000 0.500000 0.500000
vn 0.57735026919 0.57735026919 -0.57735026919
vn 0.57735026919 -0.57735026919 -0.57735026919
vn -0.57735026919 -0.57735026919 -0.57735026919
vn -0.57735026919 0.57735026919 -0.57735026919
vn 0.57735026919 0.57735026919 0.57735026919
vn 0.57735026919 -0.57735026919 0.57735026919
vn -0.57735026919 -0.57735026919 0.57735026919
vn -0.57735026919 0.57735026919 0.57735026919
s off
f 2//2 3//3 4//4
f 8//8 7//7 6//6
f 1//1 5//5 6//6
f 2//2 6//6 7//7
f 7//7 8//8 4//4
f 1//1 4//4 8//8
f 1//1 2//2 4//4
f 5//5 8//8 6//6
f 2//2 1//1 6//6
f 3//3 2//2 7//7
f 3//3 7//7 4//4
f 5//5 1//1 8//8
